<?xml version="1.0" encoding="UTF-8"?>
<svg id="Layer_1" xmlns="http://www.w3.org/2000/svg" version="1.1" viewBox="0 0 2894 812">
  <!-- Generator: Adobe Illustrator 29.1.0, SVG Export Plug-In . SVG Version: 2.1.0 Build 142)  -->
  <defs>
    <style>
      .st0 {
        fill: #fff;
      }
    </style>
  </defs>
  <path class="st0" d="M542.1,383c0-1.3-.2-2.7-.3-4-3.2-47.7-7.4-115.6-42.1-152.3q-.9-.9-1.8-1.7c-3.8-3.8-7.6-7-12.5-9.4-5.4-2.2-11-2.6-16.5-.6-10.3,4.2-18.8,13.7-23.2,23.8-.3.7-.5,1.4-.8,2.2h-2c-.3.9-.7,1.7-1,2.6q-.7,1.7-1.4,3.3c-1.3,3.3-2.1,5.6-4.6,8.1-6.9-21.1-16.4-45.5-35-59-8.1-5-14.6-7.8-24-5-18.6,7.8-28.1,26.1-36,43.5-.7,1.5-1.4,3-2,4.5-15.5,33.2-21,73.3-24.6,109.4-.1,1.2-.2,2.4-.4,3.6-2.2,21.4-3.2,42.7-3.3,64.3,0,1.2,0,2.3,0,3.5,0,18.1.5,36.2,1.9,54.3q.1,1.4.2,2.7c3.8,44,10.3,92.1,30.4,132.1.6,1.1,1.1,2.1,1.7,3.2,4.2,8,8.6,15.7,14.6,22.5.8.8,1.6,1.7,2.4,2.5q2.2,2.5,4.6,4.7c8,5.6,20.1,4.7,29.4,3.3q18.6-8,39.2-59c.3-.7.5-1.3.8-2,4.6,8.9,9,18,15,26,6.1,7,12.6,14.2,22.2,15.4,9.4.3,15.8-1.8,22.7-8.2,44.6-46.5,47.3-135.1,47.4-195.8,0-1,0-1.9,0-2.9,0-11.9-.3-23.7-1.1-35.5ZM429.9,562.5c.3.9.6,1.8.9,2.8.3.8.5,1.6.8,2.4.7,3.8,0,6.5-2.1,9.7-5.1,5.2-10.7,9.4-18.2,9.8-7.9-.8-14.2-4.8-19.5-10.6-40.8-52.6-40.4-145.3-32.9-208.7,2.3-18.2,5.3-36.2,9.6-54.1.3-1.1.5-2.3.8-3.4,3.8-15,10-29.1,17.6-42.5.6-1.1,1.2-2.1,1.8-3.2,9.8-12.7,21.3-18.1,35.5-9.1q6.9,5.9,8.7,10.3c-.2,4-1.5,7.5-2.9,11.2-.7,2.1-1.4,4.1-2.1,6.2-.3,1-.7,1.9-1,2.9-1.7,4.8-2.8,9.7-3.9,14.6q-.3,1.4-.7,2.9c-2.2,9.6-3.7,19.3-5,29.1-.4,2.7-.8,5.4-1.2,8.1-3.5,24.4-4.5,48.7-4.5,73.3,0,3,0,6.1,0,9.1-.3,46.7,3.9,94.4,18.2,139ZM531,463c-.1.7-.2,1.4-.3,2.2-.7,5-1.7,9.9-2.7,14.8-.2.8-.3,1.7-.5,2.5q-8.5,39.6-24.5,51.5c-3.4,1.7-6.4,1.9-10,1-13.7-8-18.7-25.3-22.7-39.7-13.6-53.1-16.7-128.4,10.6-177.8,4.5-7.5,10.5-14.9,20.1-13.5,13.2,6.8,18.1,21.9,22.3,35.1,3.8,12.4,5.9,25.1,7.7,37.9.1.9.2,1.8.4,2.7,3.5,27,3.5,56.4-.4,83.3Z"/>
  <path class="st0" d="M1527,384c-.3-.7-.7-1.3-1-2-11.3-10.7-25.8-15.1-41.1-15.4-19.3,0-38.7,5.5-52.9,19.3-.7.7-1.3,1.4-2,2.1-12.1,12.8-18.9,29.3-20.2,46.8-1.1,22.6,3.1,45.3,18.5,62.8.9.8,1.8,1.6,2.7,2.4,10.1,10.2,22.3,17.2,36.6,19.7,20.1,2.5,39.4.3,56-12,1.1-.9,2.3-1.8,3.4-2.7q.5,6.1,1,12h40v-202h-40c-.3,23.5-.7,46.2-1,69ZM1524,468c-6.6,9.2-13.9,14.1-24.8,16.5-12.3,1.9-23.6.2-34.2-6.5-8.1-6.4-14-15.5-15.8-25.8-1.5-13.8,1.3-27.1,9.8-38.2,14-14.6,35-15.7,52.1-6.4,8,5.1,14.3,12.2,16.9,21.4,2.9,13,2.8,27.1-4,39Z"/>
  <path class="st0" d="M1929.5,429.8c-.2-.6-.4-1.2-.5-1.8-4-15.6-11.9-31.5-24.9-41.6-.7-.5-1.4-1-2.1-1.4-21-14.6-47.5-22.7-73-15.1-1,.4-2,.7-3,1.1-5.1,1.8-10.1,3.7-15,6-10.3,5.7-25.1,16.2-28.7,28.2-.1.6-.2,1.2-.3,1.8h-2c-6.9,13.9-10.2,28.4-9,44,2.1,19.1,10.6,38,25.9,50.4q1.1.8,2.1,1.6c15.4,12.5,31.9,17.2,51.4,17.4,21.5-.1,42-7,57.6-22.3,14.2-14.6,22.2-31.6,22.2-52.1,0-1,0-2,0-3,0-4.4.3-8.9-.7-13.2ZM1888,460c-.3.8-.7,1.6-1,2.5-4.7,10.6-12.4,17.3-23,21.5-1.1.4-2.1.9-3.2,1.3-11.8,2.2-21,.3-31.8-4.3v-2c-.6-.2-1.1-.5-1.7-.7-7.4-4.2-13-12.4-15.8-20.3-2.6-10-2.9-20.6,1.5-30.1.4-.9.8-1.8,1.2-2.7,5.5-11.1,13.3-16.9,24.8-21.3,7.6-2.5,19.6-2.2,27,1,11.2,6.2,19.2,14,23.5,26.4,2.6,9.8,2.7,19.3-1.5,28.6Z"/>
  <path class="st0" d="M315.8,613.3c-1.6-1.9-3.1-3.7-4.8-5.6-33-36.2-52-81.5-61.3-129.2q-.3-1.8-.7-3.5c-4.4-22.8-4.4-45.3-4.3-68.4,0-1.1,0-2.1,0-3.2,0-1.9,0-3.9,0-5.8,1.5-67.1,29.4-134.7,77.7-181.1.5-.5,1-.9,1.4-1.4l-2-1c-.6.2-1.1.5-1.7.7-.8.4-1.6.9-2.3,1.3-18.5,8.9-35.7,18.9-52,31.4-.7.5-1.4,1.1-2,1.6-21.8,16.9-40.8,38.9-55,62.5-.4.7-.9,1.5-1.3,2.2-10.2,17.1-19.1,37.4-22.9,57-.4,2.2-.8,4.4-1.3,6.6-5.8,24.3-6.5,53.9-1,78.4.2.8.4,1.6.5,2.3,7.2,32.3,20.5,62,40.8,88.2.7.9,1.5,1.9,2.2,2.8,19.8,25.7,46.5,47.1,75,62.4.9.5,1.9,1,2.8,1.5,6.3,3.3,12.4,6.1,19.2,8.1-2.6-2.5-5-4.9-7.2-7.7Z"/>
  <path class="st0" d="M1147.8,383.9c-22.5-15.7-50.8-21.8-77.1-11.8-15.6,6.3-32.9,16.6-40,32.7-.3.7-.5,1.5-.8,2.2h-2c-.7,1.7-1.3,3.3-2,5-1.8,4-3.5,7.9-5,12-4.2,16.6-3.7,36.9,4.9,52.1q.6.9,1.1,1.9c3,5.4,6.1,10.6,10.2,15.2,16,16.3,35.3,26.7,58.5,27.2q1.7,0,3.4,0c2.2,0,4.3,0,6.5,0,19.1-.8,38.3-10.2,51.3-24.1.7-.8,1.4-1.5,2-2.3.7-.8,1.4-1.5,2.1-2.3,14.8-17.3,18.5-37.6,16.9-59.7-3.4-19.6-14.6-36.1-30.2-48.1ZM1129,472c-5.8,6.4-11.7,10.6-20,13-.6.2-1.2.4-1.9.6-11.5,2.3-22-.2-31.9-6.3-8.6-6.3-14.4-14.9-16.8-25.3-2.1-13.8.7-25.6,8.8-36.9,13.4-15.4,36.3-19.4,53.4-7.9,9.8,7,15.2,15.3,18.1,26.9,1.1,13.5-1.4,25.1-9.8,36.1Z"/>
  <path class="st0" d="M2440.4,387.4c-.5-.5-1.1-1-1.6-1.5-2.7-2.6-5-4.7-8.7-5.7-.7,0-1.4-.1-2.1-.2v-2c-31.4-16.2-73.9-13.5-100,12-14.2,14.7-20.3,30.8-20.5,51.1,0,1.3,0,2.5,0,3.8,0,9.3.2,18.1,3.2,27,.4,1,.8,2,1.3,3,3.9,9.4,9.2,18.1,17,24.8l3,2.2c1.8,1.5,3.6,3,5.4,4.3,18.9,12.4,41.8,17.8,64.2,14.2.8-.2,1.5-.4,2.3-.6,13.9-3.1,25.9-8.1,37.4-16.8,5.1-4.4,12.7-10.3,13.6-17.2-2.9-2.1-5.3-3.8-8.9-4.8-.7,0-1.4-.2-2.1-.2v-2c-6.2-4.3-12.8-7.7-20-10-5.3,5.2-10.6,9.4-17.3,12.8-12,5.2-26.6,4.6-38.7.2-7.6-3.3-13.7-6.6-17.1-14.5-.4-.9-.7-1.8-1.1-2.7-.6-1.6-1.3-3.2-1.9-4.8,14.3-.1,28.6-.2,42.9-.3,6.9,0,13.9-.1,20.8-.2,6.1,0,12.2,0,18.3-.1,2.6,0,5.2,0,7.7,0,3.7,0,7.5,0,11.2,0,1.2,0,2.3,0,3.4,0,1.1,0,2.2,0,3.2,0,1,0,2,0,2.9,0,2.2,0,3.9.4,5.5-1.2.2-4.6.2-9.2.2-13.8-.5-22.4-7.4-41-23.8-56.7ZM2421,431h-72c0-7.9,1.9-11.9,7.5-17.5,5.5-4.7,10.4-8,17.5-9.5.8-.2,1.5-.4,2.3-.5,10.6-1.8,20.4-1,29.7,4.5,7,5,12.3,10.7,15,19v4Z"/>
  <path class="st0" d="M1373.1,370.9c-3,0-6,0-9,0-1,0-1.9,0-2.8,0-3.1,0-6.2,0-9.3,0q-1,1-1.8,3.1c-.4,1-.7,2-1.1,2.9q-.7,1.8-1.4,3.6c-1.7,4.4-3.4,8.8-5.1,13.2-.8,2.2-1.7,4.3-2.5,6.5-.9,2.2-1.7,4.4-2.6,6.7-.9,2.3-1.8,4.6-2.7,6.9-2.6,6.7-5.2,13.5-7.8,20.2-7.5-13.9-14.5-28-21.4-42.2-1.1-2.3-2.3-4.7-3.4-7-3.1-6.3-6.2-12.6-9.2-18.9-.3-.6-.6-1.2-.9-1.8h-2q-1.1,1.1-3.7,6.7c-2.5,5.4-5.1,10.9-7.8,16.2-.5,1-1,2-1.5,3-1,2-2,3.9-3,5.9-2.4,4.6-4.7,8.8-5.8,13.8q0,1.2-.2,2.4h-2c-.6,3.3-1.9,6.1-3.4,9.1q-.5.9-.9,1.9c-1.9,3.9-3.9,7.6-6.6,11-1.7-4.6-3.4-9.1-5.1-13.7-6.1-16.5-12.2-33-18.9-49.3h-42q0,3,.6,4.8c.3.7.6,1.4.9,2.2.4.9.7,1.7,1.1,2.6.9,2,1.7,4,2.6,6,.5,1.2,1,2.3,1.5,3.4,3.6,8.6,7.2,17.3,10.7,25.9.8,1.9,1.5,3.8,2.3,5.6,3.2,7.8,6.3,15.5,9.5,23.3,2.3,5.6,4.6,11.2,6.9,16.9q.6,1.4,1.1,2.8c7.8,19.2,15.8,38.4,23.8,57.5q2-1,3.3-3.1t1.4-2.8c.5-1.1,1.1-2.1,1.6-3.1,1.2-2.3,2.3-4.5,3.5-6.8.6-1.2,1.2-2.3,1.8-3.5,2.4-4.7,4.9-9.4,7.4-14.1,3.6-6.8,7.2-13.6,10.6-20.5.5-1,1-2,1.5-3,.5-1,1-1.9,1.4-2.9.5-.9.9-1.8,1.3-2.7,1.1-2.3,2.1-4.4,2.8-6.8.1-.6.2-1.2.4-1.7h2v-4h3q0,2,1.3,4.2c1.1,1.9,2.2,3.8,3.3,5.7.6,1.1,1.1,2.2,1.7,3.2.9,1.8,1.9,3.7,2.8,5.5,1.4,2.6,2.7,5.3,4.1,7.9.3.7.7,1.3,1,2,2.6,5.1,5.3,10.2,8,15.3,5.2,9.8,10.2,19.7,15.1,29.7.3.5.5,1,.8,1.5h2q4.2-7.6,11.1-25.1c1.9-4.7,3.8-9.5,5.8-14.2,3.2-7.7,6.5-15.5,9.6-23.2,1.6-3.8,3.1-7.7,4.7-11.5,2.4-5.7,4.7-11.4,7.1-17.1,3.2-7.8,6.4-15.6,9.6-23.3,1.2-2.8,2.3-5.5,3.5-8.3,1.2-2.8,2.3-5.6,3.5-8.4.6-1.5,1.3-3,1.9-4.6.3-.8.6-1.5,1-2.3.3-.7.6-1.5.9-2.2.3-.7.6-1.4.9-2.1,1.2-2.9,1.9-5.7,2.5-8.8-5,0-9.9,0-14.9,0-2,0-4,0-6.1,0Z"/>
  <path class="st0" d="M2219.8,367.7c-.9,0-1.9,0-2.8,0-6.1,0-11.3.4-17.1,2.6-.7.3-1.3.5-2,.8-5.6,2.2-10.8,4.7-15.7,8.3q-1.7,1.4-3.3,2.7-.5-6.1-1-12h-40v147h40c0-9.4.2-18.8.3-28.2,0-6.2.1-12.4.2-18.6,0-5.2,0-10.3.2-15.5,0-2,0-3.9,0-5.9,0-2.8,0-5.6,0-8.5,0-.9,0-1.7,0-2.6,0-10.3,1.4-19.1,7.8-27.5,4.8-5.1,10.1-7.9,17.1-8.7,9.6-.2,16.4.8,23.6,7.5,4.7,5.3,6.1,12.3,6.2,19.3,0,.9,0,1.7,0,2.6,0,3,0,5.9,0,8.9,0,2.1,0,4.2,0,6.3,0,5.5,0,11.1,0,16.6,0,5.7,0,11.5,0,17.2,0,9.5.1,18.9.2,28.4,0,2.9,0,5.8,0,8.7h41c0-11.7.2-23.4.2-35.1,0-6,0-12,0-18,0-5.8,0-11.7,0-17.5,0-2.2,0-4.5,0-6.7.2-20.9-.5-42.4-15.6-58.7-11.5-10.4-24.8-13-39.9-13.3Z"/>
  <path class="st0" d="M2084.9,381.6c-11.2-10.5-24.7-13.7-39.7-13.9q-1.3,0-2.6,0c-13,0-24.6,3.7-35.3,11.1-1.4,1.1-2.8,2.1-4.2,3.2v-12h-40v147h39c0-8.2.1-16.5.2-24.7,0-5.5.1-10.9.2-16.4,0-4.5,0-9.1.1-13.6,0-1.7,0-3.5,0-5.2,0-8.9.2-17.8,1.1-26.6,0-.8.2-1.6.3-2.4.3-2.7.6-5.3,1.1-8,.7-1,1.3-2,2-3,.6-1.2,1.2-2.3,1.8-3.4,3.6-6.2,9.4-9.7,16.2-11.6,11.3-.9,17.7,0,26.6,7.1q7.3,15.2,7,32.5c0,2.1,0,4.1,0,6.2,0,5.4,0,10.8,0,16.2,0,6.7,0,13.4.1,20.1,0,4.2,0,8.5,0,12.7,0,6.9,0,13.5,0,20.2h41c0-11.4,0-22.9,0-34.3,0-5.8,0-11.7,0-17.5,0-5.7,0-11.4,0-17.2,0-2.2,0-4.4,0-6.5,0-3.1,0-6.3,0-9.4,0-1,0-1.9,0-2.9.1-16.7-4-34.8-15.3-47.5Z"/>
  <path class="st0" d="M1653,414c9-8.2,18.5-10.7,30.5-10.3,9.7.9,19.4,5.4,25.8,12.9,2.3,3.1,4.9,5.7,7.7,8.4,3.9-1.5,7.8-2.9,11.7-4.4,1.6-.6,3.2-1.2,4.8-1.8,2.3-.9,4.7-1.8,7-2.7.8-.3,1.5-.6,2.2-.9,3.4-1.2,6.7-1.9,8.3-5.3q0-5.8-14.5-20.4c-17.4-16.2-37.2-22.1-60.6-21.7-19.4.8-37.4,8.1-51.9,21.1-14.6,14.5-23.7,32.2-24.6,52.9-.2,19.2,6.3,38.3,19.8,52.3.6.6,1.2,1.2,1.8,1.8,4.8,5.1,10.9,11.9,17.8,13.7.7,0,1.5.2,2.2.3v2c.7.3,1.4.6,2.1,1,20.5,9.1,44,11.9,65.6,4,.8-.3,1.6-.6,2.4-1,4.5-1.8,8.8-3.7,13-6,11.3-7.5,23.5-19.5,27-33-4.8-2.1-9.5-4.1-14.3-6.1q-1.3-.5-2.6-1.1c-6.1-2.6-11.4-4.4-18.1-4.9q-2.9,4.6-6.6,8.7c-7.7,7.6-17.9,11.4-28.7,11.6-1.3,0-2.5-.2-3.7-.2-7.7-.4-14.6-3.7-20.9-8-.7-.7-1.4-1.3-2.1-2-.8-.8-1.7-1.5-2.5-2.2-8-8.8-10.5-18.4-11.1-30.1.2-10,3.9-19.9,10.9-27.2.5-.5,1.1-1,1.6-1.4Z"/>
  <path class="st0" d="M2542,414c9-8.2,18.5-10.7,30.5-10.3,9.7.9,19.4,5.4,25.8,12.9,2.3,3.1,4.9,5.7,7.7,8.4,3.9-1.5,7.8-2.9,11.7-4.4,1.6-.6,3.2-1.2,4.8-1.8,2.3-.9,4.7-1.8,7-2.7.8-.3,1.5-.6,2.2-.9,2.6-1,4.9-1.9,7.3-3.2q1.1-2,1-4c-.7-1-1.3-2-2-3-5.3-8-10.8-14.5-18.2-20.6-26.8-20.2-67.6-23.2-95.9-3.8-.6.5-1.3.9-1.9,1.4-11.2,7.9-20.4,18.1-26.5,30.4-7.2,16.9-9.8,35.5-3.8,53.2.4,1.1.9,2.2,1.3,3.3,4.6,11.7,10.8,22.9,20.6,31.2.8.6,1.6,1.2,2.4,1.8.8.6,1.5,1.3,2.3,1.9.8.6,1.5,1.2,2.2,1.8,2.5,2.1,4.1,3.2,7.3,4,.8,0,1.5.2,2.2.3v2c3.9,1.8,7.9,3.5,12,5,22.1,7.4,46.1,5.2,67-5,9.6-5.3,22.3-14.2,25.7-25.3.1-.6.2-1.2.3-1.7h2q1.1-2.2,3-8c-4.5-2-9-3.8-13.6-5.6-.8-.3-1.5-.6-2.3-.9-6-2.4-12-4.5-18.1-6.5-3.1,4.2-6.2,8.3-10,12-9.9,7.7-21.3,10.1-33.6,8.6-2.5-.4-4.9-.8-7.4-1.1-1-.1-2.1-.3-3.1-.4v-2c-4.5-2-8-5-11.6-8.4-7.6-8.2-10.8-17.3-11.1-28.4,0-10.7,3.4-20.9,11-28.7.5-.5,1.1-1,1.6-1.4Z"/>
  <path class="st0" d="M791.7,410.8c9.4-6.6,20.1-7.9,31.3-6.8,9.6,2.2,17.9,6.9,23.8,14.8q1.5,2.3,3.2,4.2c3.2,1.1,4.8,1,8.1.2,1.2-.5,2.3-.9,3.4-1.4,1.2-.5,2.5-1,3.7-1.5,1.9-.8,3.9-1.6,5.8-2.3,5.6-2.2,11.3-4.1,16-8-4.8-8.8-10.4-16.3-18.2-22.7-19.7-15.7-46.3-24.2-71.5-18-.8.2-1.6.5-2.4.7-13.2,3.5-25.9,10.1-35.8,19.6-.8.8-1.5,1.6-2.2,2.4-1.6,1.6-3.1,3.3-4.6,5-14.2,18.1-18.4,37.3-16.4,60,2.6,16.8,12,33,25.2,43.6.6.5,1.2.9,1.8,1.4,5,4.1,10.2,7.5,15.9,10.6,21.4,10,45.8,11.4,68.1,3.4,16.9-7,31.3-20.2,39-37q-1-2-3.6-3.2t-3.4-1.3c-1.2-.5-2.5-1-3.8-1.5-2-.8-3.9-1.5-5.9-2.3-5.7-2.2-11.2-4.7-17.3-5.7-1.6,2.5-3.1,4.7-5,7-8.7,8.1-18.1,12-30,13-11.3.1-21.7-3-30-11-8.2-10.2-11.5-21.6-10.9-34.6,1.3-12.5,6-20.7,15.6-28.7Z"/>
  <path class="st0" d="M2748,368h-29v-39h-39v39h-19v35h18c0,10.5,0,21,0,31.4,0,5.3,0,10.7,0,16,0,5.2,0,10.5,0,15.7,0,2,0,4,0,6,0,2.9,0,5.7,0,8.6,0,.9,0,1.8,0,2.6,0,2.9,0,5.7.1,8.6,2,9,5.5,16.7,12.9,22.4,15.2,9.7,38,8,55.1,5.6v-34c-8.3,0-16.6,2-23-4q-4.7-10.9-4.6-22.9c0-1.5,0-3.1,0-4.6,0-4,0-8.1,0-12.1,0-4.2,0-8.3,0-12.5,0-9-.1-17.9-.2-26.9h29v-35Z"/>
  <path class="st0" d="M958.9,385.4c-1,1.2-1.9,2.4-2.9,3.6q-.5-9.6-1-19h-40v147h40c0-7.8.2-15.6.3-23.4,0-5.1.1-10.3.2-15.4,0-4.3,0-8.5.2-12.8,0-1.6,0-3.3,0-4.9,0-2.3,0-4.7,0-7,0-.7,0-1.4,0-2.2.1-9.1,1.5-17.3,5.8-25.4,9.6-11.8,19.9-16.6,34.7-18.8q4.4-.6,8.8-1.2v-38c-17.7,0-34,3.8-46.1,17.4Z"/>
  <path class="st0" d="M597,387c-1.6-8.8-3.9-17.1-8-25-2.5-4-4.4-6.6-9.1-7.8-10.3,2.6-14.1,17.9-16.3,27.1-5.5,27.2-7.5,67.1,8.3,91.7,2.7,3.5,3.8,4.8,8.1,5.5q3.7-.6,7.1-5.1c14.8-22.6,14.3-57.2,10.4-83-.2-1.2-.4-2.3-.6-3.4Z"/>
</svg>