<?xml version="1.0" encoding="UTF-8"?>
<svg id="Layer_1" xmlns="http://www.w3.org/2000/svg" version="1.1" viewBox="0 0 256 256">
  <!-- Generator: Adobe Illustrator 29.1.0, SVG Export Plug-In . SVG Version: 2.1.0 Build 142)  -->
  <defs>
    <style>
      .st0 {
        fill: #fff;
      }
    </style>
  </defs>
  <path class="st0" d="M193.7,115.9c0-.6,0-1.2-.1-1.7-1.4-20.5-3.2-49.7-18.1-65.5q-.4-.4-.8-.7c-1.6-1.6-3.3-3-5.4-4.1-2.3-.9-4.7-1.1-7.1-.2-4.4,1.8-8.1,5.9-10,10.3-.1.3-.2.6-.3.9h-.9c-.1.4-.3.7-.4,1.1q-.3.7-.6,1.4c-.6,1.4-.9,2.4-2,3.5-3-9.1-7.1-19.6-15.1-25.4-3.5-2.2-6.3-3.3-10.3-2.2-8,3.3-12.1,11.2-15.5,18.7-.3.6-.6,1.3-.9,1.9-6.7,14.3-9,31.5-10.6,47,0,.5-.1,1.1-.2,1.6-.9,9.2-1.4,18.4-1.4,27.6,0,.5,0,1,0,1.5,0,7.8.2,15.6.8,23.4q0,.6,0,1.2c1.6,18.9,4.4,39.6,13.1,56.8.2.5.5.9.7,1.4,1.8,3.4,3.7,6.7,6.3,9.7.3.4.7.7,1,1.1q.9,1.1,2,2c3.4,2.4,8.6,2,12.6,1.4q8-3.4,16.9-25.4c.1-.3.2-.6.3-.8,2,3.8,3.9,7.7,6.5,11.2,2.6,3,5.4,6.1,9.6,6.6,4.1.1,6.8-.8,9.8-3.5,19.2-20,20.3-58.1,20.4-84.2,0-.4,0-.8,0-1.2,0-5.1-.1-10.2-.5-15.3ZM145.4,193.1c.1.4.2.8.4,1.2.1.3.2.7.3,1,.3,1.6,0,2.8-.9,4.2-2.2,2.2-4.6,4.1-7.8,4.2-3.4-.3-6.1-2.1-8.4-4.6-17.6-22.6-17.4-62.5-14.1-89.7,1-7.8,2.3-15.6,4.1-23.3.1-.5.2-1,.3-1.5,1.6-6.5,4.3-12.5,7.6-18.3.3-.5.5-.9.8-1.4,4.2-5.4,9.2-7.8,15.3-3.9q3,2.5,3.7,4.4c0,1.7-.7,3.2-1.3,4.8-.3.9-.6,1.8-.9,2.7-.1.4-.3.8-.4,1.3-.7,2.1-1.2,4.2-1.7,6.3q-.1.6-.3,1.2c-.9,4.1-1.6,8.3-2.2,12.5-.2,1.2-.3,2.3-.5,3.5-1.5,10.5-1.9,20.9-1.9,31.5,0,1.3,0,2.6,0,3.9-.1,20.1,1.7,40.6,7.8,59.8ZM188.9,150.3c0,.3,0,.6-.1.9-.3,2.1-.7,4.3-1.2,6.4,0,.4-.1.7-.2,1.1q-3.6,17-10.5,22.1c-1.5.7-2.7.8-4.3.4-5.9-3.4-8.1-10.9-9.8-17.1-5.9-22.8-7.2-55.2,4.6-76.5,2-3.2,4.5-6.4,8.6-5.8,5.7,2.9,7.8,9.4,9.6,15.1,1.6,5.3,2.5,10.8,3.3,16.3,0,.4.1.8.2,1.1,1.5,11.6,1.5,24.3-.2,35.8Z"/>
  <path class="st0" d="M96.3,215c-.7-.8-1.4-1.6-2.1-2.4-14.2-15.6-22.4-35.1-26.4-55.6q-.1-.8-.3-1.5c-1.9-9.8-1.9-19.5-1.8-29.4,0-.5,0-.9,0-1.4,0-.8,0-1.7,0-2.5.7-28.8,12.7-57.9,33.4-77.9.2-.2.4-.4.6-.6l-.9-.4c-.2.1-.5.2-.7.3-.3.2-.7.4-1,.5-7.9,3.8-15.3,8.1-22.3,13.5-.3.2-.6.5-.9.7-9.4,7.3-17.5,16.7-23.7,26.9-.2.3-.4.6-.6.9-4.4,7.4-8.2,16.1-9.8,24.5-.2,1-.4,1.9-.6,2.8-2.5,10.5-2.8,23.2-.4,33.7,0,.3.2.7.2,1,3.1,13.9,8.8,26.6,17.6,37.9.3.4.6.8.9,1.2,8.5,11.1,20,20.3,32.3,26.8.4.2.8.4,1.2.6,2.7,1.4,5.3,2.6,8.3,3.5-1.1-1.1-2.1-2.1-3.1-3.3Z"/>
  <path class="st0" d="M217.3,117.6c-.7-3.8-1.7-7.3-3.4-10.8-1.1-1.7-1.9-2.8-3.9-3.3-4.4,1.1-6.1,7.7-7,11.6-2.4,11.7-3.2,28.8,3.6,39.4,1.2,1.5,1.6,2.1,3.5,2.4q1.6-.3,3.1-2.2c6.4-9.7,6.2-24.6,4.5-35.7,0-.5-.2-1-.3-1.5Z"/>
</svg>
